%TF.GenerationSoftware,KiCad,Pcbnew,(5.1.9)-1*%
%TF.CreationDate,2021-06-07T23:04:27-04:00*%
%TF.ProjectId,cbm-pla,63626d2d-706c-4612-9e6b-696361645f70,rev?*%
%TF.SameCoordinates,Original*%
%TF.FileFunction,Copper,L2,Bot*%
%TF.FilePolarity,Positive*%
%FSLAX46Y46*%
G04 Gerber Fmt 4.6, Leading zero omitted, Abs format (unit mm)*
G04 Created by KiCad (PCBNEW (5.1.9)-1) date 2021-06-07 23:04:27*
%MOMM*%
%LPD*%
G01*
G04 APERTURE LIST*
%TA.AperFunction,ComponentPad*%
%ADD10O,1.600000X1.600000*%
%TD*%
%TA.AperFunction,ComponentPad*%
%ADD11R,1.600000X1.600000*%
%TD*%
G04 APERTURE END LIST*
D10*
%TO.P,J2,28*%
%TO.N,P28*%
X133896100Y-71577200D03*
%TO.P,J2,14*%
%TO.N,P14*%
X166916100Y-86817200D03*
%TO.P,J2,27*%
%TO.N,P27*%
X136436100Y-71577200D03*
%TO.P,J2,13*%
%TO.N,P13*%
X164376100Y-86817200D03*
%TO.P,J2,26*%
%TO.N,P26*%
X138976100Y-71577200D03*
%TO.P,J2,12*%
%TO.N,P12*%
X161836100Y-86817200D03*
%TO.P,J2,25*%
%TO.N,P25*%
X141516100Y-71577200D03*
%TO.P,J2,11*%
%TO.N,P11*%
X159296100Y-86817200D03*
%TO.P,J2,24*%
%TO.N,P24*%
X144056100Y-71577200D03*
%TO.P,J2,10*%
%TO.N,Net-(J1-Pad20)*%
X156756100Y-86817200D03*
%TO.P,J2,23*%
%TO.N,P23*%
X146596100Y-71577200D03*
%TO.P,J2,9*%
%TO.N,P9*%
X154216100Y-86817200D03*
%TO.P,J2,22*%
%TO.N,Net-(J1-Pad19)*%
X149136100Y-71577200D03*
%TO.P,J2,8*%
%TO.N,P8*%
X151676100Y-86817200D03*
%TO.P,J2,21*%
%TO.N,P21*%
X151676100Y-71577200D03*
%TO.P,J2,7*%
%TO.N,P7*%
X149136100Y-86817200D03*
%TO.P,J2,20*%
%TO.N,Net-(J1-Pad19)*%
X154216100Y-71577200D03*
%TO.P,J2,6*%
%TO.N,P6*%
X146596100Y-86817200D03*
%TO.P,J2,19*%
%TO.N,Net-(J1-Pad10)*%
X156756100Y-71577200D03*
%TO.P,J2,5*%
%TO.N,P5*%
X144056100Y-86817200D03*
%TO.P,J2,18*%
%TO.N,P18*%
X159296100Y-71577200D03*
%TO.P,J2,4*%
%TO.N,P4*%
X141516100Y-86817200D03*
%TO.P,J2,17*%
%TO.N,P17*%
X161836100Y-71577200D03*
%TO.P,J2,3*%
%TO.N,P3*%
X138976100Y-86817200D03*
%TO.P,J2,16*%
%TO.N,P16*%
X164376100Y-71577200D03*
%TO.P,J2,2*%
%TO.N,P2*%
X136436100Y-86817200D03*
%TO.P,J2,15*%
%TO.N,P15*%
X166916100Y-71577200D03*
D11*
%TO.P,J2,1*%
%TO.N,Net-(J1-Pad22)*%
X133896100Y-86817200D03*
%TD*%
D10*
%TO.P,J1,28*%
%TO.N,P28*%
X133896100Y-74066400D03*
%TO.P,J1,14*%
%TO.N,P14*%
X166916100Y-89306400D03*
%TO.P,J1,27*%
%TO.N,P27*%
X136436100Y-74066400D03*
%TO.P,J1,13*%
%TO.N,P13*%
X164376100Y-89306400D03*
%TO.P,J1,26*%
%TO.N,P26*%
X138976100Y-74066400D03*
%TO.P,J1,12*%
%TO.N,P12*%
X161836100Y-89306400D03*
%TO.P,J1,25*%
%TO.N,P25*%
X141516100Y-74066400D03*
%TO.P,J1,11*%
%TO.N,P11*%
X159296100Y-89306400D03*
%TO.P,J1,24*%
%TO.N,P24*%
X144056100Y-74066400D03*
%TO.P,J1,10*%
%TO.N,Net-(J1-Pad10)*%
X156756100Y-89306400D03*
%TO.P,J1,23*%
%TO.N,P23*%
X146596100Y-74066400D03*
%TO.P,J1,9*%
%TO.N,P9*%
X154216100Y-89306400D03*
%TO.P,J1,22*%
%TO.N,Net-(J1-Pad22)*%
X149136100Y-74066400D03*
%TO.P,J1,8*%
%TO.N,P8*%
X151676100Y-89306400D03*
%TO.P,J1,21*%
%TO.N,P21*%
X151676100Y-74066400D03*
%TO.P,J1,7*%
%TO.N,P7*%
X149136100Y-89306400D03*
%TO.P,J1,20*%
%TO.N,Net-(J1-Pad20)*%
X154216100Y-74066400D03*
%TO.P,J1,6*%
%TO.N,P6*%
X146596100Y-89306400D03*
%TO.P,J1,19*%
%TO.N,Net-(J1-Pad19)*%
X156756100Y-74066400D03*
%TO.P,J1,5*%
%TO.N,P5*%
X144056100Y-89306400D03*
%TO.P,J1,18*%
%TO.N,P18*%
X159296100Y-74066400D03*
%TO.P,J1,4*%
%TO.N,P4*%
X141516100Y-89306400D03*
%TO.P,J1,17*%
%TO.N,P17*%
X161836100Y-74066400D03*
%TO.P,J1,3*%
%TO.N,P3*%
X138976100Y-89306400D03*
%TO.P,J1,16*%
%TO.N,P16*%
X164376100Y-74066400D03*
%TO.P,J1,2*%
%TO.N,P2*%
X136436100Y-89306400D03*
%TO.P,J1,15*%
%TO.N,P15*%
X166916100Y-74066400D03*
D11*
%TO.P,J1,1*%
%TO.N,N/C*%
X133896100Y-89306400D03*
%TD*%
M02*
