M48
; DRILL file {KiCad (5.1.9)-1} date 06/07/21 23:05:26
; FORMAT={-:-/ absolute / inch / decimal}
; #@! TF.CreationDate,2021-06-07T23:05:26-04:00
; #@! TF.GenerationSoftware,Kicad,Pcbnew,(5.1.9)-1
FMAT,2
INCH
T1C0.0315
%
G90
G05
T1
X5.2715Y-2.818
X5.2715Y-2.916
X5.2715Y-3.418
X5.2715Y-3.516
X5.3715Y-2.818
X5.3715Y-2.916
X5.3715Y-3.418
X5.3715Y-3.516
X5.4715Y-2.818
X5.4715Y-2.916
X5.4715Y-3.418
X5.4715Y-3.516
X5.5715Y-2.818
X5.5715Y-2.916
X5.5715Y-3.418
X5.5715Y-3.516
X5.6715Y-2.818
X5.6715Y-2.916
X5.6715Y-3.418
X5.6715Y-3.516
X5.7715Y-2.818
X5.7715Y-2.916
X5.7715Y-3.418
X5.7715Y-3.516
X5.8715Y-2.818
X5.8715Y-2.916
X5.8715Y-3.418
X5.8715Y-3.516
X5.9715Y-2.818
X5.9715Y-2.916
X5.9715Y-3.418
X5.9715Y-3.516
X6.0715Y-2.818
X6.0715Y-2.916
X6.0715Y-3.418
X6.0715Y-3.516
X6.1715Y-2.818
X6.1715Y-2.916
X6.1715Y-3.418
X6.1715Y-3.516
X6.2715Y-2.818
X6.2715Y-2.916
X6.2715Y-3.418
X6.2715Y-3.516
X6.3715Y-2.818
X6.3715Y-2.916
X6.3715Y-3.418
X6.3715Y-3.516
X6.4715Y-2.818
X6.4715Y-2.916
X6.4715Y-3.418
X6.4715Y-3.516
X6.5715Y-2.818
X6.5715Y-2.916
X6.5715Y-3.418
X6.5715Y-3.516
T0
M30
